<?xml version="1.0" encoding="utf-8"?>
<!-- Generator: Adobe Illustrator 23.0.1, SVG Export Plug-In . SVG Version: 6.00 Build 0)  -->
<svg version="1.1" id="Layer_1" xmlns="http://www.w3.org/2000/svg" xmlns:xlink="http://www.w3.org/1999/xlink" x="0px" y="0px"
	 viewBox="0 0 326.68 324.43" style="enable-background:new 0 0 326.68 324.43;" xml:space="preserve">
<style type="text/css">
	.st0{fill:none;stroke:#000000;stroke-width:6;stroke-miterlimit:10;}
</style>
<g>
	<path d="M53.34,76.75h13.43l36.67,103.28c4.65,12.91,9.3,25.82,13.94,38.73h1.03c4.65-12.91,8.78-25.82,13.43-38.73L168.5,76.75
		h13.43v170.42h-8.26V128.39c0-13.43,0.52-30.47,1.03-44.41h-1.03l-13.17,37.7l-38.47,106.38h-8.78L74.51,121.67l-13.43-37.7h-1.03
		c0.52,13.94,1.03,30.99,1.03,44.41v118.78h-7.75V76.75z"/>
	<path d="M173.31,76.75h44.41c34.08,0,55.26,13.43,55.26,41.31c0,18.07-9.29,32.02-26.85,37.18v1.03
		c22.72,3.61,37.7,17.56,37.7,41.31c0,32.53-24.27,49.58-63,49.58h-47.51V76.75z M212.56,152.66c37.18,0,52.16-12.91,52.16-34.08
		c0-25.3-17.56-34.6-50.61-34.6h-32.53v68.68H212.56z M217.72,239.93c35.63,0,57.84-12.91,57.84-41.83
		c0-25.82-21.17-38.22-57.84-38.22h-36.15v80.04H217.72z"/>
</g>
<circle class="st0" cx="161.58" cy="161.95" r="155.48"/>
</svg>
